<svg id="svg" version="1.1" xmlns="http://www.w3.org/2000/svg" xmlns:xlink="http://www.w3.org/1999/xlink" width="400" height="400" viewBox="0, 0, 400,400"><g id="svgg"><path id="path0" d="M258.186 208.155 C 257.922 209.917,255.764 211.043,254.338 210.162 C 253.787 209.821,250.613 212.972,249.364 215.100 C 248.815 216.035,248.197 216.800,247.991 216.800 C 247.784 216.800,246.397 217.949,244.907 219.353 C 243.418 220.758,241.570 222.175,240.800 222.502 C 238.331 223.553,236.047 225.600,237.345 225.600 C 239.171 225.600,238.492 226.211,236.200 226.631 C 234.312 226.977,233.998 226.947,233.984 226.417 C 233.976 226.078,233.716 226.381,233.407 227.092 C 233.098 227.803,232.250 228.747,231.523 229.191 C 230.795 229.634,230.470 230.000,230.800 230.005 C 231.320 230.011,231.322 230.062,230.819 230.380 C 230.500 230.582,230.107 230.666,229.946 230.567 C 229.785 230.467,229.341 230.915,228.959 231.562 C 228.577 232.208,227.800 232.967,227.232 233.248 C 226.665 233.529,225.570 234.337,224.800 235.042 C 223.913 235.856,222.487 236.577,220.908 237.013 C 219.477 237.408,218.521 237.872,218.663 238.102 C 218.800 238.323,218.667 238.422,218.368 238.323 C 218.069 238.223,217.459 238.668,217.012 239.311 C 216.175 240.516,215.182 241.167,212.860 242.031 C 212.123 242.306,210.799 243.132,209.919 243.868 C 209.038 244.603,207.886 245.314,207.359 245.446 C 206.832 245.578,206.400 245.858,206.400 246.067 C 206.400 246.276,206.247 246.353,206.061 246.237 C 205.874 246.122,205.333 246.389,204.858 246.831 C 203.692 247.919,200.280 249.600,199.242 249.600 C 198.779 249.600,198.400 249.780,198.400 250.000 C 198.400 250.220,198.265 250.364,198.100 250.321 C 197.518 250.167,195.781 250.922,194.155 252.036 C 191.725 253.700,189.513 254.466,187.546 254.325 C 186.009 254.215,185.717 254.332,185.104 255.304 C 184.721 255.911,183.866 256.736,183.205 257.138 C 182.544 257.541,182.137 258.014,182.301 258.189 C 182.466 258.365,181.430 258.396,180.000 258.258 C 175.883 257.860,175.042 258.243,174.800 260.627 C 174.642 262.181,174.451 262.593,173.900 262.567 C 173.515 262.548,172.559 262.503,171.776 262.467 C 170.814 262.422,170.445 262.251,170.638 261.938 C 170.796 261.684,170.750 261.584,170.536 261.716 C 170.323 261.848,168.615 261.989,166.741 262.031 C 164.579 262.078,163.314 262.269,163.281 262.553 C 163.252 262.799,163.143 263.630,163.040 264.400 C 162.936 265.170,162.840 265.950,162.826 266.134 C 162.811 266.317,160.865 266.342,158.500 266.188 L 154.200 265.908 154.400 269.854 L 154.600 273.800 174.400 273.868 C 196.750 273.944,196.711 273.946,197.041 272.454 C 197.625 269.818,197.192 270.000,202.853 270.000 C 208.978 270.000,209.600 269.779,209.600 267.600 L 209.600 266.029 213.500 265.914 L 217.400 265.800 217.520 263.938 L 217.641 262.076 221.388 261.938 C 225.837 261.774,225.872 261.751,225.969 258.900 C 225.994 258.179,226.233 258.000,227.167 258.000 C 229.286 258.000,229.600 257.681,229.600 255.527 L 229.600 253.540 233.121 253.742 C 237.234 253.979,237.605 253.824,237.879 251.754 C 238.129 249.855,237.873 250.064,240.086 249.950 C 241.112 249.896,241.941 249.751,241.928 249.627 C 241.916 249.502,241.927 248.635,241.953 247.700 L 242.000 246.000 243.586 246.000 C 245.373 246.000,246.000 245.280,246.000 243.226 C 246.000 242.125,246.125 242.000,247.226 242.000 C 249.820 242.000,250.093 241.543,249.939 237.465 C 249.801 233.816,249.804 233.799,250.800 233.662 C 252.309 233.453,252.800 232.853,252.800 231.219 C 252.800 229.539,253.611 228.904,256.000 228.712 L 257.400 228.600 257.600 225.200 L 257.800 221.800 259.400 221.600 L 261.000 221.400 261.296 218.600 C 261.742 214.378,261.880 214.000,262.975 214.000 C 264.927 214.000,265.200 213.658,265.200 211.217 C 265.200 207.920,263.755 206.400,260.621 206.400 L 258.449 206.400 258.186 208.155 " stroke="none" fill="#27af66" fill-rule="evenodd"></path><path id="path1" d="M126.081 96.647 L 126.200 99.376 128.000 99.290 C 131.176 99.140,132.474 99.638,133.002 101.210 L 133.469 102.600 136.416 102.719 C 139.722 102.853,140.400 103.207,140.400 104.800 C 140.400 106.081,140.938 106.624,142.602 107.023 C 144.261 107.421,144.800 107.931,144.800 109.105 C 144.800 110.316,145.812 111.170,147.267 111.187 C 149.011 111.208,149.564 111.603,149.829 113.015 C 150.072 114.307,150.158 114.361,152.340 114.589 C 155.404 114.910,156.568 115.547,156.734 116.994 C 156.878 118.243,157.778 119.167,158.871 119.187 C 159.828 119.205,160.800 120.301,160.800 121.361 C 160.800 122.459,161.908 123.055,164.524 123.364 C 166.627 123.612,167.600 124.303,167.600 125.547 C 167.600 126.201,167.955 126.402,169.500 126.627 C 172.256 127.026,172.800 127.412,172.800 128.966 C 172.800 130.109,172.989 130.373,174.100 130.785 C 176.312 131.604,176.596 131.845,176.734 133.021 C 176.941 134.772,177.845 135.245,180.461 134.969 C 183.282 134.671,184.307 135.163,184.475 136.893 C 184.576 137.936,184.832 138.254,185.800 138.542 C 188.600 139.374,188.800 139.531,188.800 140.895 C 188.800 142.330,189.441 142.926,191.460 143.369 C 192.421 143.580,192.832 143.990,193.315 145.220 L 193.936 146.800 196.568 146.800 C 199.517 146.800,200.800 147.586,200.800 149.392 C 200.800 150.151,201.059 150.440,201.900 150.620 C 203.987 151.066,204.800 151.571,204.800 152.418 C 204.800 153.956,205.564 154.785,207.227 155.051 C 208.863 155.312,209.600 156.081,209.600 157.527 C 209.600 158.470,210.605 158.787,213.620 158.795 C 216.172 158.801,216.800 159.246,216.800 161.048 C 216.800 162.238,216.952 162.386,218.800 163.000 C 220.558 163.584,220.800 163.798,220.800 164.770 C 220.800 166.018,221.880 167.197,223.031 167.205 C 224.761 167.218,225.576 167.714,226.005 169.016 C 226.417 170.264,226.589 170.366,228.722 170.628 C 232.166 171.050,232.800 171.383,232.800 172.766 C 232.800 174.080,233.149 174.408,235.185 175.009 C 236.276 175.330,236.624 175.679,236.822 176.644 C 237.225 178.616,237.496 178.800,240.005 178.800 C 243.121 178.800,244.400 179.394,244.400 180.841 C 244.400 182.156,244.857 182.499,246.993 182.786 C 248.477 182.985,248.604 183.105,248.834 184.520 C 249.131 186.352,249.391 186.634,251.200 187.090 C 252.381 187.388,252.684 187.706,253.139 189.124 L 253.678 190.806 256.912 190.758 C 261.131 190.697,261.660 191.616,261.769 199.200 L 261.800 201.400 259.800 201.600 C 257.814 201.799,257.799 201.810,257.675 203.320 C 257.541 204.937,256.639 205.600,254.574 205.600 C 253.356 205.600,253.048 209.703,254.232 210.157 C 256.122 210.882,257.913 209.975,258.186 208.155 L 258.449 206.400 260.621 206.400 C 263.755 206.400,265.200 207.920,265.200 211.217 C 265.200 213.658,264.927 214.000,262.975 214.000 C 261.880 214.000,261.742 214.378,261.296 218.600 L 261.000 221.400 259.400 221.600 L 257.800 221.800 257.600 225.200 L 257.400 228.600 256.000 228.712 C 253.611 228.904,252.800 229.539,252.800 231.219 C 252.800 232.852,252.309 233.453,250.804 233.662 C 248.241 234.018,249.356 238.000,252.018 238.000 L 254.000 238.000 254.000 236.000 L 254.000 234.000 256.000 234.000 L 258.000 234.000 258.000 232.051 L 258.000 230.102 259.612 229.844 C 261.599 229.527,262.000 228.675,262.000 224.774 L 262.000 222.000 263.520 222.000 C 265.737 222.000,266.000 221.525,266.000 217.520 L 266.000 214.000 267.551 214.000 C 269.983 214.000,270.086 213.664,269.935 206.278 C 269.786 199.057,269.658 198.650,267.386 198.224 L 266.000 197.964 266.000 193.982 L 266.000 190.000 264.022 190.000 L 262.044 190.000 261.922 188.100 L 261.800 186.200 259.914 186.079 C 258.117 185.963,258.016 185.893,257.772 184.593 C 257.407 182.644,256.755 182.288,253.178 182.081 L 250.000 181.897 250.000 179.949 L 250.000 178.000 248.022 178.000 L 246.044 178.000 245.922 176.100 L 245.800 174.200 243.700 174.079 C 241.823 173.971,241.600 173.862,241.600 173.056 C 241.600 171.070,239.588 170.031,235.700 170.010 L 234.000 170.000 234.000 168.000 L 234.000 166.000 232.000 166.000 L 230.000 166.000 230.000 164.480 C 230.000 162.522,229.436 162.000,227.320 162.000 C 225.790 162.000,225.600 161.898,225.600 161.076 C 225.600 159.073,223.603 158.032,219.722 158.010 L 218.044 158.000 217.922 156.100 L 217.800 154.200 215.948 154.080 C 214.125 153.962,214.092 153.935,213.841 152.368 C 213.527 150.403,212.664 150.000,208.774 150.000 L 206.000 150.000 206.000 148.000 L 206.000 146.000 204.022 146.000 L 202.044 146.000 201.922 144.100 L 201.800 142.200 199.914 142.079 C 198.117 141.963,198.016 141.893,197.772 140.593 C 197.407 138.644,196.755 138.288,193.178 138.081 L 190.000 137.897 190.000 135.949 L 190.000 134.000 188.022 134.000 L 186.044 134.000 185.922 132.100 L 185.800 130.200 183.914 130.079 C 182.117 129.963,182.016 129.893,181.772 128.593 C 181.407 126.644,180.755 126.288,177.178 126.081 L 174.000 125.897 174.000 123.949 L 174.000 122.000 172.000 122.000 L 170.000 122.000 170.000 120.480 C 170.000 118.522,169.436 118.000,167.320 118.000 C 165.790 118.000,165.600 117.898,165.600 117.076 C 165.600 115.069,163.603 114.031,159.700 114.010 L 158.000 114.000 158.000 112.000 L 158.000 110.000 156.051 110.000 L 154.102 110.000 153.844 108.388 C 153.527 106.401,152.675 106.000,148.774 106.000 L 146.000 106.000 146.000 104.000 L 146.000 102.000 144.022 102.000 L 142.044 102.000 141.922 100.100 L 141.800 98.200 139.914 98.079 C 138.117 97.963,138.016 97.893,137.772 96.593 C 137.365 94.423,136.818 94.215,131.120 94.059 L 125.962 93.919 126.081 96.647 M165.499 157.472 C 165.077 157.894,164.977 158.328,165.202 158.755 C 165.389 159.110,165.649 159.741,165.780 160.157 C 166.072 161.082,166.320 160.873,166.763 159.330 C 167.232 157.695,166.440 156.531,165.499 157.472 M189.759 178.067 C 189.645 178.250,190.193 178.400,190.976 178.400 C 191.759 178.400,192.400 178.330,192.400 178.245 C 192.400 177.917,189.954 177.751,189.759 178.067 M193.923 179.003 C 193.354 179.919,193.138 182.315,193.599 182.599 C 194.480 183.144,194.880 182.166,194.519 180.347 C 194.329 179.386,194.060 178.781,193.923 179.003 M221.407 189.589 C 220.969 190.298,221.993 191.200,223.235 191.200 C 224.438 191.200,225.200 192.112,225.200 193.550 C 225.200 194.513,225.914 195.046,226.467 194.493 C 227.060 193.900,226.429 190.442,225.653 190.035 C 224.453 189.406,221.699 189.117,221.407 189.589 M165.713 191.600 C 164.801 193.848,164.761 194.300,165.455 194.566 C 166.557 194.989,166.900 194.256,166.492 192.347 C 166.134 190.675,166.101 190.643,165.713 191.600 M193.736 213.624 C 193.243 214.117,193.609 216.403,194.200 216.520 C 194.707 216.621,194.977 214.017,194.509 213.549 C 194.310 213.350,193.977 213.383,193.736 213.624 M234.000 226.317 C 234.000 226.968,234.202 226.997,236.200 226.631 C 237.410 226.409,238.400 226.087,238.400 225.914 C 238.400 225.741,237.410 225.600,236.200 225.600 C 234.352 225.600,234.000 225.715,234.000 226.317 M161.194 229.408 C 160.781 229.905,160.822 230.161,161.420 230.823 C 162.288 231.781,163.042 230.992,162.597 229.592 C 162.296 228.643,161.874 228.588,161.194 229.408 M229.806 229.990 C 229.491 230.500,230.146 230.804,230.753 230.429 C 231.154 230.181,231.131 230.059,230.646 229.873 C 230.305 229.742,229.927 229.795,229.806 229.990 M249.188 241.616 C 248.865 241.820,248.015 241.991,247.300 241.994 C 246.117 241.999,246.000 242.111,246.000 243.226 C 246.000 243.901,245.799 244.828,245.553 245.287 C 245.171 246.001,245.205 246.084,245.786 245.861 C 246.160 245.717,246.776 245.600,247.156 245.600 C 248.332 245.600,249.229 244.647,249.600 243.001 C 250.009 241.188,249.986 241.111,249.188 241.616 M229.600 255.536 C 229.600 257.680,229.284 258.000,227.167 258.000 C 226.202 258.000,225.991 258.173,225.950 259.000 C 225.923 259.550,225.855 260.180,225.800 260.400 C 225.745 260.620,225.678 260.980,225.650 261.200 C 225.623 261.420,225.300 261.600,224.933 261.600 C 224.567 261.600,224.363 261.696,224.480 261.813 C 225.570 262.903,229.600 260.705,229.600 259.021 C 229.600 258.122,229.772 258.032,231.700 257.921 L 233.800 257.800 233.800 255.800 L 233.800 253.800 231.700 253.679 L 229.600 253.558 229.600 255.536 M186.900 254.287 C 187.505 254.378,188.495 254.378,189.100 254.287 C 189.705 254.195,189.210 254.120,188.000 254.120 C 186.790 254.120,186.295 254.195,186.900 254.287 M180.400 258.000 L 179.000 258.295 180.724 258.347 C 181.783 258.380,182.352 258.246,182.200 258.000 C 182.064 257.780,181.918 257.624,181.876 257.653 C 181.834 257.682,181.170 257.838,180.400 258.000 M173.437 259.373 C 173.100 260.179,172.312 261.039,171.532 261.454 L 170.200 262.161 172.199 262.461 C 174.580 262.819,174.713 262.718,174.875 260.416 C 174.981 258.903,175.152 258.590,176.000 258.356 C 176.856 258.120,176.784 258.074,175.505 258.040 C 174.166 258.004,173.951 258.142,173.437 259.373 M146.214 263.300 C 146.609 265.147,147.033 265.526,149.043 265.827 C 150.298 266.016,150.711 266.227,150.449 266.547 C 149.945 267.163,149.977 272.876,150.488 273.500 C 150.714 273.775,151.731 274.000,152.749 274.001 L 154.600 274.002 154.400 270.101 L 154.200 266.200 152.893 266.160 C 151.330 266.112,150.613 265.600,152.110 265.600 C 153.317 265.600,153.407 265.488,153.753 263.567 C 154.034 262.005,153.041 261.412,152.579 262.867 C 152.451 263.270,152.168 263.600,151.949 263.600 C 151.731 263.600,151.664 263.420,151.800 263.200 C 152.202 262.549,151.743 262.744,151.149 263.477 C 150.776 263.937,150.760 264.057,151.100 263.853 C 151.375 263.688,151.600 263.724,151.600 263.934 C 151.600 264.357,150.651 264.800,149.744 264.800 C 149.419 264.800,149.256 264.632,149.383 264.428 C 149.509 264.223,149.402 263.925,149.145 263.766 C 148.852 263.585,148.784 263.650,148.962 263.938 C 149.370 264.598,148.852 264.509,148.139 263.796 C 147.807 263.464,147.342 263.312,147.106 263.458 C 146.849 263.617,146.793 263.535,146.966 263.255 C 147.125 262.998,147.421 262.889,147.623 263.014 C 147.825 263.139,147.884 262.962,147.753 262.621 C 147.244 261.296,145.912 261.884,146.214 263.300 M159.322 262.396 C 158.224 262.849,157.588 265.494,158.447 266.038 C 159.123 266.465,162.790 266.518,162.826 266.100 C 163.014 263.889,163.177 263.110,163.544 262.668 C 164.077 262.025,160.743 261.811,159.322 262.396 M217.539 264.041 L 217.400 266.082 219.135 265.886 C 221.231 265.650,221.560 265.358,221.867 263.465 L 222.105 262.000 219.891 262.000 L 217.677 262.000 217.539 264.041 M209.600 267.580 C 209.600 268.663,209.380 269.289,208.900 269.568 C 207.984 270.101,208.805 270.119,210.989 269.612 C 214.286 268.848,214.767 266.000,211.600 266.000 L 209.600 266.000 209.600 267.580 M197.464 270.700 C 197.360 271.085,197.164 271.895,197.030 272.500 C 196.838 273.360,196.547 273.607,195.692 273.632 C 195.092 273.649,194.838 273.758,195.128 273.874 C 197.401 274.783,201.600 272.919,201.600 271.000 C 201.600 269.708,197.808 269.433,197.464 270.700 " stroke="none" fill="#141c1e" fill-rule="evenodd"></path><path id="path2" d="M126.000 99.871 C 126.000 100.246,126.647 100.400,128.219 100.400 C 130.356 100.400,132.400 101.595,132.400 102.844 C 132.400 103.440,134.011 104.047,136.048 104.218 C 138.400 104.416,138.800 104.607,138.800 105.534 C 138.800 106.230,141.731 108.400,142.672 108.400 C 142.953 108.400,143.534 109.087,143.963 109.927 C 144.879 111.724,145.410 112.196,146.914 112.556 C 147.548 112.707,148.177 113.213,148.372 113.728 C 148.888 115.083,149.565 115.483,152.155 115.960 C 154.579 116.406,155.600 116.944,155.600 117.774 C 155.600 118.433,157.608 120.252,158.700 120.582 C 159.195 120.732,159.600 121.168,159.600 121.552 C 159.600 122.566,161.584 124.270,163.149 124.600 C 163.921 124.763,164.574 125.179,164.677 125.573 C 164.916 126.486,166.624 127.446,168.600 127.779 C 170.500 128.098,171.452 128.731,171.656 129.810 C 171.738 130.244,172.649 131.140,173.681 131.800 C 174.712 132.460,175.566 133.163,175.578 133.362 C 175.658 134.695,177.713 136.400,179.239 136.400 C 180.432 136.400,181.104 136.667,181.892 137.456 C 182.473 138.037,183.920 138.996,185.107 139.586 C 186.651 140.355,187.513 141.107,188.137 142.230 C 188.646 143.144,189.550 144.038,190.300 144.370 C 191.010 144.684,191.685 145.237,191.800 145.600 C 192.293 147.153,193.581 147.958,196.014 148.233 C 198.096 148.469,198.512 148.657,198.986 149.573 C 199.289 150.159,200.406 151.113,201.469 151.693 C 202.666 152.346,203.686 153.281,204.152 154.152 C 204.567 154.930,205.508 155.845,206.256 156.200 C 207.000 156.553,207.909 157.327,208.276 157.921 C 209.345 159.648,210.021 160.000,212.271 160.000 C 214.305 160.000,214.430 160.064,215.391 161.586 C 215.942 162.458,217.110 163.583,217.987 164.086 C 218.864 164.589,219.783 165.482,220.028 166.071 C 220.596 167.438,221.508 168.223,222.917 168.558 C 223.532 168.704,224.145 169.133,224.281 169.512 C 224.701 170.681,225.914 171.599,227.083 171.630 C 229.052 171.684,230.973 172.607,231.542 173.773 C 231.840 174.383,232.870 175.359,233.832 175.941 C 234.793 176.524,235.689 177.321,235.821 177.713 C 236.223 178.901,237.840 180.400,238.720 180.400 C 240.030 180.400,241.600 181.128,241.600 181.736 C 241.600 182.041,242.455 182.598,243.500 182.973 C 246.908 184.196,247.154 184.350,247.832 185.683 C 248.642 187.276,249.574 188.211,250.710 188.572 C 251.177 188.720,251.660 189.160,251.784 189.550 C 252.332 191.276,253.549 192.000,255.916 192.006 C 258.516 192.013,258.972 192.217,259.391 193.557 C 259.556 194.084,260.233 195.344,260.896 196.357 C 261.559 197.371,261.983 197.855,261.838 197.433 C 261.693 197.011,261.464 195.615,261.330 194.331 C 260.971 190.895,260.733 190.703,256.912 190.758 L 253.678 190.806 253.139 189.124 C 252.684 187.706,252.381 187.388,251.200 187.090 C 249.391 186.634,249.131 186.352,248.834 184.520 C 248.604 183.105,248.477 182.985,246.993 182.786 C 244.857 182.499,244.400 182.156,244.400 180.841 C 244.400 179.394,243.121 178.800,240.005 178.800 C 237.496 178.800,237.225 178.616,236.822 176.644 C 236.624 175.679,236.276 175.330,235.185 175.009 C 233.149 174.408,232.800 174.080,232.800 172.766 C 232.800 171.383,232.166 171.050,228.722 170.628 C 226.589 170.366,226.417 170.264,226.005 169.016 C 225.570 167.698,224.762 167.217,222.962 167.205 C 221.848 167.198,220.800 165.984,220.800 164.701 C 220.800 163.812,220.514 163.569,218.800 163.000 C 216.952 162.386,216.800 162.238,216.800 161.048 C 216.800 159.246,216.172 158.801,213.620 158.795 C 210.605 158.787,209.600 158.470,209.600 157.527 C 209.600 156.081,208.863 155.312,207.227 155.051 C 205.564 154.785,204.800 153.956,204.800 152.418 C 204.800 151.571,203.987 151.066,201.900 150.620 C 201.059 150.440,200.800 150.151,200.800 149.392 C 200.800 147.586,199.517 146.800,196.568 146.800 L 193.936 146.800 193.315 145.220 C 192.832 143.990,192.421 143.580,191.460 143.369 C 189.441 142.926,188.800 142.330,188.800 140.895 C 188.800 139.531,188.600 139.374,185.800 138.542 C 184.832 138.254,184.576 137.936,184.475 136.893 C 184.307 135.163,183.282 134.671,180.461 134.969 C 177.845 135.245,176.941 134.772,176.734 133.021 C 176.596 131.845,176.312 131.604,174.100 130.785 C 172.989 130.373,172.800 130.109,172.800 128.966 C 172.800 127.412,172.256 127.026,169.500 126.627 C 167.955 126.402,167.600 126.201,167.600 125.547 C 167.600 124.303,166.627 123.612,164.524 123.364 C 161.908 123.055,160.800 122.459,160.800 121.361 C 160.800 120.301,159.828 119.205,158.871 119.187 C 157.778 119.167,156.878 118.243,156.734 116.994 C 156.568 115.547,155.404 114.910,152.340 114.589 C 150.158 114.361,150.072 114.307,149.829 113.015 C 149.564 111.603,149.011 111.208,147.267 111.187 C 145.812 111.170,144.800 110.316,144.800 109.105 C 144.800 107.931,144.261 107.421,142.602 107.023 C 140.938 106.624,140.400 106.081,140.400 104.800 C 140.400 103.207,139.722 102.853,136.416 102.719 L 133.469 102.600 133.002 101.210 C 132.629 100.099,132.260 99.759,131.168 99.517 C 129.034 99.044,126.000 99.253,126.000 99.871 M165.031 156.606 C 163.856 157.696,163.856 157.691,164.414 160.293 C 165.106 163.517,166.907 163.798,167.930 160.840 C 168.655 158.742,168.501 157.822,167.231 156.691 L 166.063 155.650 165.031 156.606 M166.763 159.330 C 166.320 160.873,166.072 161.082,165.780 160.157 C 165.649 159.741,165.389 159.110,165.202 158.755 C 164.977 158.328,165.077 157.894,165.499 157.472 C 166.440 156.531,167.232 157.695,166.763 159.330 M189.005 177.194 L 188.210 178.073 189.860 179.537 C 190.768 180.341,191.822 181.555,192.202 182.233 C 194.033 185.498,196.734 183.931,195.864 180.108 C 195.097 176.736,190.995 174.993,189.005 177.194 M192.400 178.245 C 192.400 178.330,191.759 178.400,190.976 178.400 C 190.193 178.400,189.645 178.250,189.759 178.067 C 189.954 177.751,192.400 177.917,192.400 178.245 M194.468 182.492 C 193.700 183.260,193.117 182.368,193.400 180.857 C 193.825 178.595,194.143 178.450,194.519 180.347 C 194.738 181.448,194.719 182.241,194.468 182.492 M220.803 188.797 C 219.691 189.909,220.644 192.400,222.182 192.400 C 222.469 192.400,223.214 193.075,223.836 193.900 C 226.363 197.250,228.708 196.138,227.886 191.980 C 227.202 188.525,222.975 186.625,220.803 188.797 M161.267 189.434 C 160.700 190.076,160.780 190.253,162.515 192.187 C 162.909 192.625,163.325 193.361,163.441 193.821 C 163.933 195.783,166.576 196.317,167.898 194.722 C 168.421 194.092,167.702 190.480,166.851 189.459 C 166.119 188.580,162.037 188.562,161.267 189.434 M225.653 190.035 C 226.429 190.442,227.060 193.900,226.467 194.493 C 225.914 195.046,225.200 194.513,225.200 193.550 C 225.200 192.112,224.438 191.200,223.235 191.200 C 221.993 191.200,220.969 190.298,221.407 189.589 C 221.699 189.117,224.453 189.406,225.653 190.035 M166.500 194.460 C 165.830 195.130,164.751 194.385,165.041 193.453 C 165.925 190.613,166.094 190.485,166.492 192.347 C 166.718 193.404,166.721 194.239,166.500 194.460 M261.632 200.078 C 261.607 200.598,261.156 200.785,259.700 200.878 C 257.958 200.990,257.734 201.125,257.000 202.513 C 256.493 203.473,255.834 204.103,255.200 204.237 C 254.650 204.353,253.942 204.584,253.627 204.751 C 253.056 205.052,252.957 205.206,251.982 207.293 C 251.702 207.895,251.104 208.503,250.655 208.646 C 248.940 209.190,247.724 213.999,249.300 214.001 C 249.575 214.001,249.179 214.316,248.420 214.701 C 247.572 215.130,246.834 215.913,246.506 216.731 L 245.973 218.061 247.223 217.331 C 247.911 216.929,248.898 215.880,249.417 215.000 C 249.936 214.120,251.089 212.688,251.980 211.819 C 253.505 210.330,253.600 210.102,253.600 207.919 C 253.600 205.729,253.654 205.600,254.574 205.600 C 256.639 205.600,257.541 204.937,257.675 203.320 C 257.799 201.808,257.810 201.799,259.721 201.677 C 261.632 201.555,262.306 201.001,261.869 199.913 C 261.736 199.582,261.652 199.641,261.632 200.078 M193.358 212.322 C 191.312 213.969,192.596 220.349,194.750 219.240 C 195.108 219.056,196.095 218.780,196.945 218.626 L 198.490 218.347 197.694 217.473 C 197.257 216.993,196.784 215.957,196.644 215.170 C 196.256 212.986,194.463 211.432,193.358 212.322 M194.729 215.249 C 194.658 215.992,194.420 216.564,194.200 216.520 C 193.609 216.403,193.243 214.117,193.736 213.624 C 194.393 212.967,194.872 213.750,194.729 215.249 M237.039 222.980 C 236.529 223.926,235.911 224.444,235.071 224.628 C 233.606 224.950,233.129 225.406,232.589 227.000 C 232.320 227.791,231.673 228.440,230.691 228.903 C 229.871 229.290,229.200 229.770,229.200 229.970 C 229.200 230.171,229.098 230.664,228.972 231.067 C 228.825 231.542,228.938 231.479,229.292 230.889 C 229.594 230.388,230.461 229.668,231.220 229.289 C 232.049 228.875,232.893 228.001,233.333 227.100 C 233.910 225.919,234.295 225.600,235.144 225.600 C 235.780 225.600,237.095 224.944,238.351 224.000 C 239.522 223.120,240.722 222.400,241.017 222.400 C 241.311 222.400,241.664 222.220,241.800 222.000 C 241.953 221.752,241.234 221.600,239.915 221.600 C 237.894 221.600,237.743 221.672,237.039 222.980 M160.365 227.313 C 159.674 227.843,158.800 229.312,158.800 229.942 C 158.800 230.159,159.523 231.067,160.408 231.961 C 162.044 233.613,163.600 233.379,163.600 231.480 C 163.600 231.194,163.795 230.765,164.034 230.526 C 165.310 229.250,161.821 226.195,160.365 227.313 M162.597 229.592 C 163.042 230.992,162.288 231.781,161.420 230.823 C 160.822 230.161,160.781 229.905,161.194 229.408 C 161.874 228.588,162.296 228.643,162.597 229.592 M218.555 237.075 C 218.090 237.167,217.505 237.690,217.255 238.239 C 216.628 239.615,216.708 240.017,217.371 238.820 C 217.685 238.253,218.563 237.639,219.457 237.362 C 220.927 236.907,220.348 236.722,218.555 237.075 M213.400 241.264 C 212.520 241.474,211.416 241.723,210.947 241.818 C 210.442 241.921,210.021 242.377,209.914 242.939 L 209.733 243.886 211.166 242.913 C 211.955 242.378,213.099 241.840,213.708 241.718 C 214.318 241.596,214.914 241.340,215.032 241.148 C 215.150 240.957,215.192 240.819,215.124 240.841 C 215.056 240.864,214.280 241.054,213.400 241.264 M184.991 254.900 C 184.435 256.048,184.434 256.109,184.981 255.424 C 185.321 254.996,185.600 254.512,185.600 254.348 C 185.600 254.183,186.275 253.978,187.100 253.891 L 188.600 253.734 187.110 253.667 C 185.797 253.608,185.546 253.754,184.991 254.900 M172.250 259.651 C 170.703 261.373,170.493 262.136,171.903 260.910 C 172.731 260.190,174.242 258.000,173.912 258.000 C 173.812 258.000,173.064 258.743,172.250 259.651 M147.753 262.621 C 147.884 262.962,147.825 263.139,147.623 263.014 C 147.421 262.889,147.125 262.998,146.966 263.255 C 146.793 263.535,146.849 263.617,147.106 263.458 C 147.342 263.312,147.807 263.464,148.139 263.796 C 148.852 264.509,149.370 264.598,148.962 263.938 C 148.784 263.650,148.852 263.585,149.145 263.766 C 149.402 263.925,149.509 264.223,149.383 264.428 C 149.256 264.632,149.419 264.800,149.744 264.800 C 150.651 264.800,151.600 264.357,151.600 263.934 C 151.600 263.724,151.420 263.664,151.200 263.800 C 150.549 264.202,150.744 263.743,151.477 263.149 C 151.937 262.776,152.057 262.760,151.853 263.100 C 151.688 263.375,151.724 263.600,151.934 263.600 C 152.258 263.600,152.800 262.704,152.800 262.167 C 152.800 262.075,151.611 262.000,150.157 262.000 C 147.933 262.000,147.552 262.098,147.753 262.621 " stroke="none" fill="#7c848c" fill-rule="evenodd"></path><path id="path3" d="M126.000 101.180 C 126.000 101.389,127.035 101.614,128.300 101.680 C 130.482 101.794,130.607 101.857,130.727 102.909 C 130.877 104.210,131.982 105.001,134.194 105.391 C 135.220 105.572,136.368 106.206,137.416 107.172 C 138.521 108.191,139.577 108.758,140.704 108.938 C 142.189 109.176,142.446 109.389,143.142 110.961 C 143.732 112.297,144.255 112.840,145.316 113.224 C 146.247 113.561,146.927 114.178,147.355 115.074 C 148.077 116.590,149.253 117.168,152.257 117.486 C 154.145 117.685,154.343 117.806,154.671 118.952 C 154.936 119.877,155.480 120.414,156.770 121.027 C 158.056 121.637,158.629 122.201,158.956 123.180 C 159.297 124.200,159.788 124.657,161.074 125.156 C 162.099 125.553,163.112 126.345,163.685 127.195 C 164.510 128.420,164.953 128.651,167.423 129.151 C 170.081 129.689,170.257 129.794,170.860 131.207 C 171.378 132.419,171.785 132.764,173.047 133.063 C 174.332 133.367,174.632 133.629,174.800 134.600 C 175.012 135.825,177.133 137.600,178.386 137.600 C 178.753 137.600,179.599 138.217,180.266 138.971 C 181.115 139.929,181.949 140.414,183.040 140.583 C 185.913 141.029,186.593 141.365,186.738 142.408 C 186.922 143.722,187.442 144.303,189.273 145.237 C 190.113 145.666,190.800 146.249,190.800 146.533 C 190.800 147.466,192.371 148.760,194.101 149.250 C 195.035 149.515,196.430 150.314,197.200 151.027 C 197.990 151.758,199.471 152.562,200.600 152.873 C 202.120 153.292,202.630 153.629,202.723 154.279 C 202.895 155.466,204.593 157.200,205.584 157.200 C 206.165 157.200,206.588 157.653,207.025 158.746 C 207.731 160.511,208.865 161.176,211.800 161.547 C 213.567 161.771,213.866 161.950,214.368 163.090 C 214.810 164.095,215.365 164.523,216.868 165.023 C 218.377 165.524,218.803 165.854,218.813 166.532 C 218.831 167.782,219.588 168.600,221.300 169.219 C 222.125 169.517,222.804 169.950,222.809 170.180 C 222.841 171.676,226.640 173.600,229.562 173.600 C 230.034 173.600,230.413 174.051,230.657 174.900 C 230.944 175.904,231.458 176.404,232.915 177.096 C 234.092 177.656,234.805 178.257,234.813 178.696 C 234.832 179.738,235.626 180.568,237.200 181.192 C 237.970 181.497,239.230 182.408,240.000 183.217 C 241.226 184.504,241.711 184.722,243.897 184.963 C 246.171 185.214,246.419 185.335,246.662 186.306 C 246.991 187.616,247.807 188.498,249.472 189.345 C 250.196 189.713,250.798 190.363,250.872 190.855 C 251.046 192.026,252.680 193.169,254.609 193.467 C 255.800 193.651,256.689 194.202,258.146 195.657 C 259.217 196.725,260.331 197.600,260.623 197.600 C 261.480 197.600,261.657 198.286,260.975 198.968 C 260.627 199.315,259.771 199.604,259.071 199.609 C 257.677 199.619,256.347 200.504,255.633 201.900 C 255.379 202.395,254.800 202.800,254.346 202.800 C 253.413 202.800,250.800 205.221,250.800 206.086 C 250.800 206.397,250.169 206.953,249.397 207.321 C 248.449 207.773,247.716 208.563,247.134 209.761 C 246.661 210.735,245.844 211.762,245.319 212.043 C 244.794 212.324,243.979 213.239,243.509 214.077 C 243.038 214.915,242.412 215.600,242.118 215.600 C 241.824 215.600,241.012 216.411,240.313 217.402 C 239.565 218.464,238.353 219.539,237.364 220.017 C 236.441 220.464,235.597 221.168,235.489 221.581 C 235.381 221.994,234.562 222.792,233.670 223.356 C 232.777 223.919,231.744 225.018,231.375 225.796 C 231.005 226.575,230.206 227.505,229.599 227.864 C 228.992 228.223,227.979 229.386,227.348 230.450 L 226.200 232.384 223.927 232.392 C 221.863 232.399,221.576 232.510,220.800 233.600 C 220.330 234.260,219.688 234.800,219.373 234.800 C 219.058 234.800,218.800 234.980,218.800 235.200 C 218.800 235.420,218.528 235.600,218.196 235.600 C 217.864 235.600,217.099 236.303,216.496 237.162 C 215.169 239.054,213.690 240.000,212.057 240.000 C 210.436 240.000,208.870 240.748,208.581 241.661 C 208.452 242.067,208.217 242.400,208.059 242.400 C 207.902 242.400,207.441 242.960,207.037 243.645 C 206.333 244.837,206.209 244.883,204.167 244.714 L 202.033 244.537 199.992 246.847 L 197.950 249.156 195.976 248.923 C 194.112 248.702,193.934 248.764,192.778 250.044 C 189.818 253.321,189.639 254.523,192.484 252.019 C 193.701 250.947,194.929 250.288,196.246 250.000 C 198.688 249.465,200.437 248.664,201.341 247.666 C 201.725 247.241,202.885 246.588,203.920 246.213 C 207.040 245.085,208.212 244.360,209.163 242.973 C 209.919 241.869,210.498 241.552,212.658 241.059 C 215.065 240.510,216.800 239.359,216.800 238.310 C 216.800 237.680,217.854 236.852,219.033 236.556 C 222.201 235.761,228.400 232.078,228.400 230.991 C 228.400 230.357,229.598 229.033,230.699 228.449 C 231.193 228.188,231.940 227.302,232.359 226.481 C 232.856 225.506,233.653 224.747,234.660 224.288 C 235.507 223.903,236.563 223.005,237.006 222.294 C 237.673 221.223,238.120 220.966,239.606 220.800 C 241.349 220.606,241.404 220.557,241.524 219.100 C 241.641 217.688,241.727 217.600,242.996 217.600 C 244.715 217.600,245.600 216.707,245.600 214.971 C 245.600 213.880,245.759 213.600,246.377 213.600 C 247.345 213.600,248.398 212.153,248.406 210.811 C 248.414 209.472,248.797 208.933,250.092 208.441 C 250.730 208.198,251.511 207.358,252.014 206.372 C 252.634 205.157,253.281 204.547,254.426 204.097 C 255.396 203.716,256.291 202.973,256.782 202.141 C 257.456 200.998,257.796 200.799,259.087 200.794 C 261.925 200.782,262.665 199.062,260.820 196.765 C 260.184 195.973,259.388 194.667,259.052 193.863 C 258.447 192.415,258.417 192.400,256.097 192.400 C 253.553 192.400,253.112 192.162,251.457 189.900 C 250.853 189.075,250.091 188.400,249.763 188.400 C 249.435 188.400,248.615 187.512,247.940 186.426 C 246.870 184.705,246.458 184.386,244.733 183.944 C 243.644 183.665,242.088 182.868,241.276 182.172 C 240.463 181.476,239.221 180.780,238.516 180.626 C 237.603 180.425,236.828 179.778,235.818 178.372 C 235.039 177.287,234.147 176.400,233.836 176.400 C 233.339 176.400,232.830 175.887,230.626 173.159 C 230.341 172.805,229.157 172.391,227.987 172.236 C 226.212 172.001,225.633 171.701,224.433 170.399 C 223.645 169.544,222.515 168.662,221.923 168.440 C 221.328 168.218,220.432 167.311,219.923 166.418 C 219.415 165.528,218.640 164.689,218.200 164.554 C 217.119 164.222,215.648 162.839,214.952 161.500 C 214.433 160.502,214.175 160.400,212.173 160.400 C 209.861 160.400,208.982 159.910,208.038 158.095 C 207.779 157.598,206.914 156.878,206.117 156.495 C 205.226 156.069,204.368 155.221,203.895 154.302 C 203.360 153.264,202.602 152.573,201.425 152.052 C 200.491 151.639,199.333 150.748,198.852 150.073 C 198.157 149.098,197.591 148.794,196.089 148.595 C 193.564 148.261,192.768 147.825,191.702 146.192 C 191.207 145.435,190.393 144.713,189.891 144.587 C 189.347 144.451,188.550 143.595,187.916 142.468 C 187.028 140.887,186.520 140.457,184.821 139.846 C 183.703 139.444,182.296 138.594,181.695 137.958 C 181.094 137.321,180.242 136.798,179.801 136.795 C 178.059 136.783,177.152 136.229,175.806 134.355 C 175.033 133.280,174.162 132.400,173.870 132.400 C 173.257 132.400,171.600 130.747,171.600 130.136 C 171.600 129.369,170.209 128.551,168.000 128.019 C 166.452 127.646,165.444 127.106,164.600 126.195 C 163.940 125.483,162.868 124.775,162.218 124.622 C 161.089 124.356,160.288 123.558,159.388 121.803 C 159.162 121.361,158.471 120.757,157.853 120.461 C 157.234 120.165,156.170 119.130,155.487 118.161 C 154.351 116.549,154.101 116.400,152.542 116.400 C 150.336 116.400,149.150 115.836,148.323 114.396 C 147.956 113.756,146.983 112.910,146.161 112.516 C 145.234 112.072,144.377 111.239,143.905 110.322 C 143.377 109.295,142.719 108.703,141.753 108.384 C 140.229 107.881,138.400 106.271,138.400 105.432 C 138.400 104.863,136.706 104.400,134.620 104.400 C 133.440 104.400,131.600 103.087,131.600 102.246 C 131.600 102.079,131.343 101.686,131.029 101.371 C 130.383 100.726,126.000 100.559,126.000 101.180 M163.705 155.908 C 160.342 160.014,165.369 167.488,169.031 163.826 C 170.441 162.416,169.486 155.702,167.782 155.049 C 166.263 154.465,164.600 154.816,163.705 155.908 M167.474 156.470 C 168.810 157.725,168.826 161.716,167.500 162.823 C 165.906 164.152,164.906 163.490,164.069 160.554 C 163.059 157.007,165.249 154.380,167.474 156.470 M188.968 175.367 C 186.214 176.567,186.375 179.797,189.245 180.925 C 190.254 181.321,190.803 181.792,190.809 182.268 C 190.833 184.277,193.347 185.832,195.271 185.028 C 197.460 184.113,198.053 180.426,196.603 176.737 C 196.055 175.341,191.078 174.449,188.968 175.367 M195.230 177.432 C 195.860 178.103,196.186 179.031,196.305 180.497 C 196.629 184.467,193.490 185.705,191.852 182.253 C 191.481 181.472,190.673 180.534,190.056 180.169 C 188.174 179.058,187.825 178.136,188.891 177.087 C 190.183 175.816,193.902 176.018,195.230 177.432 M160.875 187.028 C 158.788 188.501,158.850 191.559,161.012 193.786 C 161.737 194.532,162.392 195.464,162.468 195.857 C 162.857 197.879,168.153 197.489,169.037 195.372 C 169.581 194.070,169.268 189.481,168.556 188.329 C 167.679 186.909,162.327 186.002,160.875 187.028 M219.900 187.747 C 217.869 189.493,218.510 192.277,221.188 193.349 C 222.259 193.777,222.800 194.242,222.800 194.735 C 222.800 197.613,227.860 198.047,229.028 195.269 C 229.513 194.115,229.502 193.278,228.957 189.681 C 228.530 186.870,222.434 185.568,219.900 187.747 M226.330 188.498 C 229.645 190.088,228.728 197.589,225.404 196.075 C 224.852 195.823,224.400 195.460,224.400 195.268 C 224.400 194.683,222.031 192.400,221.423 192.400 C 221.110 192.400,220.740 192.040,220.600 191.600 C 220.460 191.160,220.178 190.800,219.973 190.800 C 219.248 190.800,219.614 189.696,220.696 188.613 C 221.885 187.424,224.000 187.381,226.330 188.498 M166.326 188.639 C 169.203 189.227,168.865 196.400,165.961 196.400 C 165.133 196.400,162.800 194.178,162.800 193.389 C 162.800 193.087,162.564 192.696,162.276 192.520 C 158.382 190.144,161.073 187.565,166.326 188.639 M192.068 211.404 C 190.891 212.394,190.800 212.653,190.800 214.987 C 190.800 219.667,191.726 220.804,195.533 220.795 C 200.623 220.782,202.094 218.308,198.976 215.002 C 198.219 214.200,197.594 213.331,197.587 213.072 C 197.525 210.884,193.964 209.808,192.068 211.404 M195.365 212.214 C 195.880 212.551,196.626 213.676,197.022 214.714 C 197.418 215.751,197.980 216.837,198.271 217.128 C 199.103 217.960,198.905 218.397,197.413 219.020 C 194.398 220.280,192.939 219.607,192.069 216.554 C 191.081 213.086,192.947 210.629,195.365 212.214 M157.383 224.307 C 155.721 225.716,155.574 226.155,156.005 228.429 C 156.287 229.913,156.750 230.886,157.508 231.587 C 158.110 232.144,159.299 233.455,160.150 234.500 C 161.950 236.712,162.186 236.769,163.462 235.300 C 166.859 231.386,165.105 224.000,160.778 224.000 C 159.946 224.000,159.026 223.913,158.733 223.807 C 158.440 223.701,157.832 223.926,157.383 224.307 M163.300 227.718 C 164.778 229.400,164.746 231.030,163.201 232.815 L 162.002 234.200 160.201 232.261 C 158.719 230.666,158.400 230.052,158.400 228.794 C 158.400 227.953,158.301 227.006,158.179 226.689 C 157.697 225.433,162.063 226.310,163.300 227.718 M184.079 254.035 C 183.155 254.714,182.400 255.412,182.400 255.586 C 182.400 255.760,181.815 256.137,181.100 256.423 C 178.743 257.365,177.953 258.065,179.600 257.752 C 181.576 257.376,182.792 256.685,184.378 255.034 C 185.541 253.825,186.043 253.593,187.578 253.553 C 189.235 253.510,189.291 253.478,188.200 253.200 C 186.176 252.685,185.814 252.758,184.079 254.035 M172.445 257.632 C 170.309 258.052,170.529 257.800,170.204 260.200 L 169.934 262.200 170.720 260.968 C 171.152 260.291,172.198 259.166,173.044 258.468 C 173.890 257.771,174.496 257.220,174.391 257.244 C 174.286 257.268,173.410 257.443,172.445 257.632 M147.900 261.893 C 148.835 261.977,150.365 261.977,151.300 261.893 C 152.235 261.809,151.470 261.740,149.600 261.740 C 147.730 261.740,146.965 261.809,147.900 261.893 " stroke="none" fill="#9ca4a9" fill-rule="evenodd"></path><path id="path4" d="M127.107 100.690 C 127.826 100.779,128.906 100.777,129.507 100.686 C 130.108 100.595,129.520 100.522,128.200 100.524 C 126.880 100.526,126.388 100.601,127.107 100.690 M131.609 102.230 C 131.596 102.843,133.342 104.402,134.026 104.388 C 134.396 104.380,134.315 104.219,133.800 103.936 C 133.360 103.694,132.689 103.114,132.309 102.648 C 131.929 102.182,131.614 101.994,131.609 102.230 M137.475 104.659 C 137.957 104.764,138.442 105.153,138.552 105.525 C 138.698 106.011,138.731 105.976,138.673 105.400 C 138.618 104.857,138.272 104.579,137.596 104.534 C 136.761 104.480,136.742 104.500,137.475 104.659 M139.280 106.937 C 139.873 107.530,141.389 108.400,141.830 108.400 C 141.985 108.400,141.449 107.950,140.638 107.400 C 139.016 106.299,138.449 106.106,139.280 106.937 M147.256 113.166 C 147.775 113.587,148.290 113.842,148.399 113.733 C 148.634 113.500,147.215 112.400,146.679 112.400 C 146.477 112.400,146.736 112.745,147.256 113.166 M148.605 114.868 C 148.943 115.751,150.584 116.408,152.319 116.355 C 153.725 116.313,153.699 116.291,151.803 115.930 C 150.705 115.720,149.482 115.256,149.086 114.897 C 148.460 114.330,148.397 114.326,148.605 114.868 M160.281 123.387 C 160.677 123.931,161.166 124.381,161.370 124.387 C 161.573 124.394,161.317 123.950,160.800 123.400 C 159.601 122.123,159.357 122.118,160.281 123.387 M164.039 125.500 C 165.048 126.815,165.966 127.600,166.483 127.589 C 166.767 127.584,166.517 127.279,165.927 126.913 C 165.336 126.547,164.768 125.921,164.664 125.524 C 164.560 125.126,164.256 124.800,163.988 124.800 C 163.626 124.800,163.639 124.978,164.039 125.500 M167.800 127.968 C 168.240 128.174,168.946 128.356,169.369 128.372 C 169.791 128.387,170.466 128.698,170.869 129.062 C 171.271 129.426,171.600 129.559,171.600 129.358 C 171.600 128.768,170.217 128.072,168.549 127.823 C 167.413 127.653,167.213 127.692,167.800 127.968 M172.488 131.426 C 173.086 132.049,173.669 132.464,173.783 132.350 C 173.897 132.236,173.407 131.727,172.695 131.219 L 171.400 130.295 172.488 131.426 M179.495 136.689 C 180.207 136.777,181.017 137.168,181.295 137.557 C 181.940 138.460,183.956 139.778,184.247 139.487 C 184.369 139.365,184.097 139.066,183.643 138.823 C 183.189 138.580,182.372 137.936,181.827 137.391 C 181.130 136.694,180.445 136.419,179.518 136.464 L 178.200 136.528 179.495 136.689 M187.400 141.600 C 187.741 142.260,188.111 142.800,188.221 142.800 C 188.331 142.800,188.141 142.260,187.800 141.600 C 187.459 140.940,187.089 140.400,186.979 140.400 C 186.869 140.400,187.059 140.940,187.400 141.600 M191.240 145.642 C 191.878 146.326,192.400 147.076,192.400 147.309 C 192.400 147.542,192.504 147.629,192.632 147.501 C 192.881 147.252,191.685 145.191,191.009 144.706 C 190.048 144.016,190.165 144.492,191.240 145.642 M193.541 148.101 C 193.743 148.303,194.333 148.401,194.854 148.319 C 195.655 148.193,195.598 148.137,194.487 147.952 C 193.693 147.821,193.319 147.879,193.541 148.101 M197.092 148.681 C 197.582 148.776,198.361 149.384,198.823 150.033 C 199.285 150.681,200.180 151.479,200.812 151.806 C 202.644 152.753,202.756 152.486,200.974 151.418 C 200.080 150.882,199.139 149.983,198.883 149.421 C 198.534 148.657,198.138 148.414,197.309 148.454 C 196.378 148.500,196.343 148.537,197.092 148.681 M203.600 153.749 C 203.600 154.354,205.250 156.400,205.727 156.387 C 206.016 156.380,205.959 156.185,205.582 155.887 C 205.242 155.619,204.657 154.955,204.282 154.411 C 203.907 153.867,203.600 153.569,203.600 153.749 M166.413 155.900 C 166.419 156.065,166.914 156.546,167.513 156.968 L 168.600 157.736 167.630 156.668 C 166.611 155.546,166.392 155.407,166.413 155.900 M207.318 157.324 C 207.803 157.831,208.429 158.596,208.708 159.024 C 209.142 159.686,209.149 159.654,208.757 158.800 C 208.209 157.608,207.202 156.400,206.756 156.400 C 206.580 156.400,206.833 156.816,207.318 157.324 M163.736 157.822 C 163.605 158.165,163.679 159.020,163.902 159.722 C 164.291 160.953,164.304 160.930,164.253 159.103 C 164.196 157.065,164.109 156.850,163.736 157.822 M209.599 160.100 C 209.600 160.265,210.675 160.400,211.990 160.400 C 214.191 160.400,214.425 160.487,214.952 161.500 C 215.638 162.820,217.502 164.631,217.833 164.301 C 217.962 164.171,217.690 163.862,217.228 163.615 C 216.766 163.368,215.949 162.470,215.412 161.619 C 214.488 160.155,209.596 158.877,209.599 160.100 M167.869 160.975 C 167.289 163.094,164.872 163.584,164.768 161.604 C 164.745 161.161,164.681 161.139,164.527 161.523 C 164.293 162.107,165.482 163.607,166.162 163.587 C 167.208 163.555,168.454 162.014,168.323 160.913 L 168.190 159.800 167.869 160.975 M223.256 169.166 C 223.775 169.587,224.290 169.842,224.399 169.733 C 224.634 169.500,223.215 168.400,222.679 168.400 C 222.477 168.400,222.736 168.745,223.256 169.166 M226.800 172.000 C 228.267 172.470,230.094 172.470,229.000 172.000 C 228.560 171.811,227.660 171.662,227.000 171.668 C 225.830 171.679,225.825 171.688,226.800 172.000 M230.683 173.188 C 231.054 173.621,231.438 173.896,231.536 173.798 C 231.774 173.559,230.795 172.400,230.355 172.400 C 230.164 172.400,230.311 172.755,230.683 173.188 M232.488 175.426 C 233.086 176.049,233.669 176.464,233.783 176.350 C 233.897 176.236,233.407 175.727,232.695 175.219 L 231.400 174.295 232.488 175.426 M193.271 176.684 C 194.657 176.896,195.288 177.685,195.886 179.956 L 196.371 181.800 196.218 180.061 C 196.033 177.948,194.726 176.373,193.230 176.460 L 192.200 176.520 193.271 176.684 M235.271 177.611 C 235.755 178.265,236.203 178.800,236.267 178.800 C 236.620 178.800,235.403 176.810,234.942 176.633 C 234.619 176.509,234.754 176.912,235.271 177.611 M188.401 178.653 C 188.839 179.354,191.600 181.424,191.600 181.052 C 191.600 180.966,190.771 180.217,189.759 179.388 C 188.746 178.558,188.135 178.227,188.401 178.653 M238.991 180.693 C 239.426 180.804,240.451 181.466,241.268 182.165 C 242.087 182.866,243.666 183.671,244.787 183.958 C 246.355 184.360,246.958 184.745,247.420 185.640 C 247.751 186.278,248.111 186.800,248.221 186.800 C 248.331 186.800,248.137 186.252,247.791 185.583 C 247.153 184.349,246.893 184.191,243.500 182.973 C 242.455 182.598,241.600 182.041,241.600 181.736 C 241.600 181.139,239.976 180.371,238.874 180.446 C 238.356 180.482,238.383 180.539,238.991 180.693 M191.600 181.725 C 191.600 182.332,192.866 183.939,193.524 184.167 C 194.124 184.375,194.130 184.345,193.582 183.901 C 193.242 183.625,192.657 182.955,192.282 182.411 C 191.907 181.867,191.600 181.558,191.600 181.725 M221.465 187.900 C 221.365 188.065,222.300 188.230,223.542 188.267 C 225.192 188.316,225.531 188.246,224.800 188.007 C 223.491 187.579,221.695 187.521,221.465 187.900 M161.407 188.644 C 160.995 188.945,160.805 189.329,160.984 189.496 C 161.163 189.663,161.390 189.575,161.488 189.300 C 161.603 188.978,162.492 188.800,163.984 188.800 C 166.682 188.800,167.177 189.204,167.852 191.956 C 168.204 193.390,168.316 193.553,168.352 192.687 C 168.427 190.941,167.383 188.855,166.326 188.639 C 163.835 188.130,162.108 188.131,161.407 188.644 M226.400 188.483 C 226.400 188.626,226.643 188.986,226.941 189.284 C 227.238 189.581,227.681 190.719,227.925 191.812 L 228.369 193.800 228.228 191.855 C 228.116 190.292,226.400 187.128,226.400 188.483 M251.462 189.907 C 253.111 192.161,253.555 192.400,256.091 192.400 L 258.428 192.400 259.160 194.106 C 259.562 195.044,260.223 196.079,260.630 196.406 C 261.264 196.916,261.251 196.830,260.537 195.800 C 260.079 195.140,259.567 194.150,259.399 193.600 C 258.974 192.215,258.533 192.013,255.916 192.006 C 253.556 192.000,252.332 191.276,251.789 189.566 C 251.668 189.186,251.300 188.770,250.970 188.644 C 250.605 188.504,250.799 189.000,251.462 189.907 M161.037 191.100 C 161.442 191.815,161.918 192.400,162.096 192.400 C 162.274 192.400,162.600 192.875,162.821 193.455 C 163.042 194.036,163.332 194.402,163.465 194.268 C 163.757 193.977,162.636 192.201,161.281 190.807 L 160.302 189.800 161.037 191.100 M224.215 194.966 C 224.563 195.498,225.123 196.038,225.459 196.167 C 225.794 196.296,225.559 195.861,224.936 195.201 C 223.564 193.748,223.376 193.686,224.215 194.966 M167.123 195.283 C 166.104 196.077,165.991 196.086,165.037 195.461 C 163.641 194.546,163.181 194.646,164.400 195.600 C 165.734 196.644,166.475 196.597,167.600 195.400 C 168.733 194.194,168.572 194.155,167.123 195.283 M227.067 195.267 C 226.663 195.707,226.408 196.141,226.498 196.232 C 226.589 196.323,227.086 195.948,227.601 195.398 C 228.117 194.849,228.373 194.415,228.170 194.433 C 227.966 194.452,227.470 194.827,227.067 195.267 M256.762 202.175 C 256.316 202.931,255.467 203.727,254.875 203.943 C 254.023 204.255,253.966 204.342,254.600 204.362 C 255.040 204.376,255.588 204.256,255.818 204.094 C 256.314 203.745,258.062 200.800,257.773 200.800 C 257.663 200.800,257.208 201.419,256.762 202.175 M251.670 207.006 C 251.417 207.562,250.716 208.204,250.113 208.433 C 248.797 208.933,248.414 209.467,248.406 210.811 C 248.398 212.153,247.345 213.600,246.377 213.600 C 245.759 213.600,245.600 213.880,245.600 214.971 C 245.600 216.707,244.715 217.600,242.996 217.600 C 241.727 217.600,241.641 217.688,241.524 219.100 C 241.404 220.557,241.349 220.606,239.606 220.800 C 238.127 220.965,237.670 221.225,237.006 222.281 C 236.563 222.985,235.660 223.853,235.000 224.208 L 233.800 224.855 234.975 224.601 C 236.177 224.341,236.985 223.571,237.427 222.266 C 237.637 221.645,238.032 221.553,240.008 221.666 C 242.662 221.818,245.204 219.880,246.538 216.686 C 246.963 215.669,247.600 214.987,248.485 214.603 C 249.208 214.288,249.575 214.024,249.300 214.016 C 247.733 213.967,248.937 209.191,250.655 208.646 C 251.474 208.386,252.712 206.579,252.332 206.199 C 252.221 206.088,251.923 206.451,251.670 207.006 M195.293 212.659 C 195.894 213.303,196.503 214.452,196.647 215.214 C 196.790 215.977,197.263 216.993,197.699 217.473 L 198.490 218.347 196.945 218.625 C 194.937 218.986,193.825 219.571,195.113 219.588 C 197.491 219.620,199.330 218.187,198.271 217.128 C 197.980 216.837,197.418 215.751,197.022 214.714 C 196.616 213.649,195.844 212.536,195.251 212.159 L 194.200 211.490 195.293 212.659 M191.736 213.822 C 191.605 214.165,191.681 215.020,191.905 215.722 C 192.301 216.959,192.312 216.939,192.270 215.100 C 192.223 213.078,192.118 212.826,191.736 213.822 M192.432 217.638 C 192.414 217.989,192.805 218.619,193.300 219.038 C 194.192 219.794,194.194 219.793,193.552 219.000 C 193.196 218.560,192.805 217.930,192.684 217.600 C 192.497 217.091,192.458 217.096,192.432 217.638 M158.131 226.563 C 158.279 226.949,158.400 227.953,158.400 228.794 C 158.400 230.043,158.723 230.677,160.171 232.261 L 161.943 234.200 162.860 233.300 C 163.365 232.805,163.567 232.400,163.309 232.400 C 163.051 232.400,162.677 232.690,162.479 233.044 C 162.110 233.705,158.800 230.914,158.800 229.942 C 158.800 227.213,161.952 225.995,163.263 228.217 C 163.723 228.996,164.192 229.541,164.305 229.428 C 164.989 228.745,162.284 226.400,160.812 226.400 C 159.962 226.400,158.949 226.279,158.563 226.131 C 158.012 225.919,157.919 226.012,158.131 226.563 M232.191 226.828 C 232.047 227.283,231.360 228.017,230.664 228.459 C 229.557 229.162,229.524 229.229,230.400 228.996 C 231.523 228.698,232.800 227.399,232.800 226.556 C 232.800 225.741,232.493 225.878,232.191 226.828 M228.576 230.554 C 228.431 231.131,227.779 232.052,227.126 232.601 C 225.915 233.620,226.426 234.011,227.702 233.042 C 228.461 232.465,229.435 230.102,229.066 229.732 C 228.941 229.608,228.721 229.977,228.576 230.554 M163.892 230.642 C 163.731 230.802,163.600 231.209,163.600 231.547 C 163.600 231.997,163.718 232.042,164.045 231.715 C 164.290 231.470,164.421 231.063,164.337 230.810 C 164.252 230.557,164.052 230.481,163.892 230.642 M222.600 234.974 C 221.280 235.672,219.570 236.447,218.800 236.695 C 217.506 237.111,217.566 237.128,219.600 236.910 C 222.939 236.552,223.641 236.273,224.715 234.881 C 225.909 233.332,225.686 233.342,222.600 234.974 M216.800 238.139 C 216.800 239.224,215.186 240.491,213.120 241.028 C 211.002 241.578,211.001 241.578,212.783 241.371 C 213.764 241.257,214.999 240.947,215.527 240.682 C 216.495 240.196,217.888 237.600,217.181 237.600 C 216.971 237.600,216.800 237.842,216.800 238.139 M209.159 242.978 C 208.640 243.736,207.761 244.570,207.207 244.830 C 206.653 245.091,206.413 245.382,206.673 245.477 C 207.562 245.800,209.581 244.414,209.856 243.293 C 210.003 242.692,210.320 242.068,210.562 241.906 C 210.877 241.695,210.874 241.611,210.552 241.606 C 210.305 241.603,209.678 242.220,209.159 242.978 M203.397 246.371 C 202.515 246.764,201.532 247.400,201.213 247.784 C 200.894 248.169,200.175 248.666,199.616 248.889 C 198.982 249.143,198.797 249.368,199.125 249.489 C 199.696 249.700,204.400 247.607,204.400 247.142 C 204.400 246.985,204.683 246.574,205.029 246.229 C 205.823 245.435,205.419 245.470,203.397 246.371 M194.767 250.328 C 193.603 250.828,190.640 253.600,191.270 253.600 C 191.607 253.600,192.369 253.150,192.962 252.600 C 193.556 252.050,194.167 251.599,194.321 251.597 C 194.474 251.596,195.140 251.237,195.800 250.800 C 197.028 249.987,196.318 249.662,194.767 250.328 M184.162 255.257 C 183.743 255.729,182.860 256.448,182.200 256.856 C 180.714 257.774,181.110 257.821,182.948 256.944 C 183.704 256.584,184.516 255.864,184.753 255.344 C 185.285 254.175,185.143 254.154,184.162 255.257 M172.000 259.400 C 171.254 260.170,170.813 260.800,171.022 260.800 C 171.230 260.800,171.903 260.170,172.517 259.400 C 173.943 257.613,173.732 257.613,172.000 259.400 " stroke="none" fill="#849494" fill-rule="evenodd"></path><path id="path5" d="M126.017 110.180 C 126.029 115.732,126.180 118.800,126.441 118.800 C 126.665 118.800,126.736 118.980,126.600 119.200 C 126.464 119.420,126.588 119.603,126.876 119.606 C 127.272 119.611,127.259 119.701,126.826 119.976 C 125.988 120.506,127.076 121.717,128.197 121.503 C 129.947 121.168,129.984 121.515,130.018 138.575 C 130.038 149.071,130.190 154.800,130.448 154.800 C 130.668 154.800,130.736 154.980,130.600 155.200 C 130.464 155.420,130.588 155.603,130.876 155.606 C 131.272 155.611,131.259 155.701,130.826 155.976 C 129.988 156.506,131.076 157.717,132.197 157.503 C 133.947 157.168,133.984 157.515,134.018 174.575 C 134.038 185.071,134.190 190.800,134.448 190.800 C 134.668 190.800,134.736 190.980,134.600 191.200 C 134.464 191.420,134.588 191.603,134.876 191.606 C 135.272 191.611,135.259 191.701,134.826 191.976 C 133.988 192.506,135.076 193.717,136.197 193.503 C 137.947 193.168,137.984 193.515,138.018 210.575 C 138.038 221.071,138.190 226.800,138.448 226.800 C 138.668 226.800,138.736 226.980,138.600 227.200 C 138.464 227.420,138.588 227.603,138.876 227.606 C 139.272 227.611,139.259 227.701,138.826 227.976 C 137.988 228.506,139.076 229.717,140.197 229.503 C 141.914 229.174,141.970 229.634,142.019 244.568 C 142.048 253.533,142.210 258.800,142.456 258.800 C 142.671 258.800,142.736 258.980,142.600 259.200 C 142.464 259.420,142.543 259.600,142.776 259.600 C 143.009 259.600,143.200 259.791,143.200 260.024 C 143.200 260.257,143.020 260.336,142.800 260.200 C 142.168 259.810,142.334 260.648,142.998 261.198 C 143.327 261.471,143.957 261.600,144.398 261.485 C 144.839 261.369,145.200 261.393,145.200 261.537 C 145.201 261.682,150.763 261.853,157.560 261.918 L 169.920 262.035 170.194 260.042 C 170.528 257.612,172.623 256.883,176.696 257.777 C 177.903 258.042,181.879 256.412,182.483 255.405 C 183.509 253.691,185.931 252.719,188.046 253.173 C 190.043 253.601,190.720 253.411,190.805 252.400 C 190.931 250.893,194.189 248.711,195.993 248.925 L 197.950 249.156 199.992 246.847 L 202.033 244.537 204.167 244.714 C 206.209 244.883,206.333 244.837,207.037 243.645 C 207.441 242.960,207.902 242.400,208.059 242.400 C 208.217 242.400,208.452 242.067,208.581 241.661 C 208.870 240.748,210.436 240.000,212.057 240.000 C 213.690 240.000,215.169 239.054,216.496 237.162 C 217.099 236.303,217.864 235.600,218.196 235.600 C 218.528 235.600,218.800 235.420,218.800 235.200 C 218.800 234.980,219.058 234.800,219.373 234.800 C 219.688 234.800,220.330 234.260,220.800 233.600 C 221.576 232.510,221.863 232.399,223.927 232.392 L 226.200 232.384 227.348 230.450 C 227.979 229.386,228.992 228.223,229.599 227.864 C 230.206 227.505,231.005 226.575,231.375 225.796 C 231.744 225.018,232.777 223.919,233.670 223.356 C 234.562 222.792,235.381 221.994,235.489 221.581 C 235.597 221.168,236.441 220.464,237.364 220.017 C 238.353 219.539,239.565 218.464,240.313 217.402 C 241.012 216.411,241.824 215.600,242.118 215.600 C 242.412 215.600,243.038 214.915,243.509 214.077 C 243.979 213.239,244.794 212.324,245.319 212.043 C 245.844 211.762,246.661 210.735,247.134 209.761 C 247.716 208.563,248.449 207.773,249.397 207.321 C 250.169 206.953,250.800 206.397,250.800 206.086 C 250.800 205.221,253.413 202.800,254.346 202.800 C 254.800 202.800,255.379 202.395,255.633 201.900 C 256.347 200.504,257.677 199.619,259.071 199.609 C 259.771 199.604,260.627 199.315,260.975 198.968 C 261.657 198.286,261.480 197.600,260.623 197.600 C 260.331 197.600,259.217 196.725,258.146 195.657 C 256.689 194.202,255.800 193.651,254.609 193.467 C 252.680 193.169,251.046 192.026,250.872 190.855 C 250.798 190.363,250.196 189.713,249.472 189.345 C 247.807 188.498,246.991 187.616,246.662 186.306 C 246.419 185.335,246.171 185.214,243.897 184.963 C 241.711 184.722,241.226 184.504,240.000 183.217 C 239.230 182.408,237.970 181.497,237.200 181.192 C 235.626 180.568,234.832 179.738,234.813 178.696 C 234.805 178.257,234.092 177.656,232.915 177.096 C 231.458 176.404,230.944 175.904,230.657 174.900 C 230.413 174.051,230.034 173.600,229.562 173.600 C 226.640 173.600,222.841 171.676,222.809 170.180 C 222.804 169.950,222.125 169.517,221.300 169.219 C 219.588 168.600,218.831 167.782,218.813 166.532 C 218.803 165.854,218.377 165.524,216.868 165.023 C 215.365 164.523,214.810 164.095,214.368 163.090 C 213.866 161.950,213.567 161.771,211.800 161.547 C 208.865 161.176,207.731 160.511,207.025 158.746 C 206.588 157.653,206.165 157.200,205.584 157.200 C 204.593 157.200,202.895 155.466,202.723 154.279 C 202.630 153.629,202.120 153.292,200.600 152.873 C 199.471 152.562,197.990 151.758,197.200 151.027 C 196.430 150.314,195.035 149.515,194.101 149.250 C 192.371 148.760,190.800 147.466,190.800 146.533 C 190.800 146.249,190.113 145.666,189.273 145.237 C 187.442 144.303,186.922 143.722,186.738 142.408 C 186.593 141.365,185.913 141.029,183.040 140.583 C 181.949 140.414,181.115 139.929,180.266 138.971 C 179.599 138.217,178.753 137.600,178.386 137.600 C 177.133 137.600,175.012 135.825,174.800 134.600 C 174.632 133.629,174.332 133.367,173.047 133.063 C 171.785 132.764,171.378 132.419,170.860 131.207 C 170.257 129.794,170.081 129.689,167.423 129.151 C 164.953 128.651,164.510 128.420,163.685 127.195 C 163.112 126.345,162.099 125.553,161.074 125.156 C 159.788 124.657,159.297 124.200,158.956 123.180 C 158.629 122.201,158.056 121.637,156.770 121.027 C 155.480 120.414,154.936 119.877,154.671 118.952 C 154.343 117.806,154.145 117.685,152.257 117.486 C 149.253 117.168,148.077 116.590,147.355 115.074 C 146.927 114.178,146.247 113.561,145.316 113.224 C 144.255 112.840,143.732 112.297,143.142 110.961 C 142.446 109.389,142.189 109.176,140.704 108.938 C 139.577 108.758,138.521 108.191,137.416 107.172 C 136.368 106.206,135.220 105.572,134.194 105.391 C 131.982 105.001,130.877 104.210,130.727 102.909 C 130.607 101.857,130.482 101.794,128.299 101.680 L 125.999 101.560 126.017 110.180 M167.782 155.049 C 169.486 155.702,170.441 162.416,169.031 163.826 C 167.679 165.178,164.828 164.863,163.724 163.241 C 160.935 159.140,163.732 153.494,167.782 155.049 M195.271 175.668 C 196.504 176.134,196.729 176.585,197.225 179.589 C 197.711 182.528,197.085 184.270,195.271 185.028 C 193.347 185.832,190.833 184.277,190.809 182.268 C 190.803 181.792,190.254 181.321,189.245 180.925 C 186.375 179.797,186.214 176.567,188.968 175.367 C 190.276 174.798,193.360 174.945,195.271 175.668 M167.275 187.448 C 170.348 189.010,170.167 196.432,167.042 197.019 C 165.102 197.382,162.641 196.757,162.468 195.857 C 162.392 195.464,161.737 194.532,161.012 193.786 C 156.601 189.243,161.350 184.437,167.275 187.448 M227.478 187.582 C 228.768 188.369,228.835 188.545,229.355 192.510 C 229.884 196.547,226.371 198.707,223.501 196.110 C 223.115 195.761,222.800 195.142,222.800 194.735 C 222.800 194.242,222.259 193.777,221.188 193.349 C 218.510 192.277,217.869 189.493,219.900 187.747 C 221.368 186.485,225.529 186.394,227.478 187.582 M196.846 211.729 C 197.246 212.208,197.579 212.812,197.587 213.072 C 197.594 213.331,198.219 214.200,198.976 215.002 C 202.094 218.308,200.623 220.782,195.533 220.795 C 191.726 220.804,190.800 219.667,190.800 214.987 C 190.800 210.862,194.471 208.885,196.846 211.729 M160.778 224.000 C 165.105 224.000,166.859 231.386,163.462 235.300 C 162.186 236.769,161.950 236.712,160.150 234.500 C 159.299 233.455,158.110 232.144,157.508 231.587 C 156.172 230.352,155.294 226.689,156.082 225.642 C 156.974 224.458,158.195 223.612,158.733 223.807 C 159.026 223.913,159.946 224.000,160.778 224.000 " stroke="none" fill="#e3e5ec" fill-rule="evenodd"></path></g></svg>